<mxfile host="app.diagrams.net" agent="Mozilla/5.0 (X11; Linux x86_64) AppleWebKit/537.36 (KHTML, like Gecko) Chrome/134.0.0.0 Safari/537.36" version="26.1.0" pages="2">
  <diagram name="第 1 页" id="Vvg-Fo-2kplNZ5rFatkM">
    <mxGraphModel dx="2191" dy="993" grid="1" gridSize="10" guides="1" tooltips="1" connect="1" arrows="1" fold="1" page="1" pageScale="1" pageWidth="827" pageHeight="1169" math="0" shadow="0">
      <root>
        <mxCell id="0" />
        <mxCell id="1" parent="0" />
        <mxCell id="Az3iGQj9nxM2931kqFIP-2" value="excuter&amp;nbsp;&lt;div&gt;ompsimd&lt;/div&gt;" style="rounded=1;whiteSpace=wrap;html=1;" parent="1" vertex="1">
          <mxGeometry x="-30" y="100" width="120" height="60" as="geometry" />
        </mxCell>
        <mxCell id="Az3iGQj9nxM2931kqFIP-20" value="tensorfunc&amp;lt;T&amp;gt;" style="text;html=1;align=center;verticalAlign=middle;whiteSpace=wrap;rounded=0;fontSize=21;" parent="1" vertex="1">
          <mxGeometry x="-730" y="240" width="130" height="30" as="geometry" />
        </mxCell>
        <mxCell id="Az3iGQj9nxM2931kqFIP-21" value="tensorfunc 特化" style="text;html=1;align=center;verticalAlign=middle;whiteSpace=wrap;rounded=0;fontSize=21;" parent="1" vertex="1">
          <mxGeometry x="-730" y="400" width="110" height="30" as="geometry" />
        </mxCell>
        <mxCell id="Az3iGQj9nxM2931kqFIP-22" value="TF" style="text;html=1;align=center;verticalAlign=middle;whiteSpace=wrap;rounded=0;fontSize=21;" parent="1" vertex="1">
          <mxGeometry x="-740" y="600" width="130" height="30" as="geometry" />
        </mxCell>
        <mxCell id="ZCyPKg8dckpy5I3t4faN-5" value="cpp-common" style="rounded=1;whiteSpace=wrap;html=1;" vertex="1" parent="1">
          <mxGeometry x="-460" y="100" width="120" height="60" as="geometry" />
        </mxCell>
        <mxCell id="ZCyPKg8dckpy5I3t4faN-8" value="" style="endArrow=none;html=1;rounded=0;" edge="1" parent="1">
          <mxGeometry width="50" height="50" relative="1" as="geometry">
            <mxPoint x="-540" y="930" as="sourcePoint" />
            <mxPoint x="-540" y="160" as="targetPoint" />
          </mxGeometry>
        </mxCell>
        <mxCell id="Az3iGQj9nxM2931kqFIP-3" value="excuter&amp;nbsp;&lt;div&gt;cuda&lt;/div&gt;" style="rounded=1;whiteSpace=wrap;html=1;" parent="1" vertex="1">
          <mxGeometry x="440" y="100" width="120" height="60" as="geometry" />
        </mxCell>
        <mxCell id="ZCyPKg8dckpy5I3t4faN-10" value="TFfactory" style="text;html=1;align=center;verticalAlign=middle;whiteSpace=wrap;rounded=0;fontSize=21;" vertex="1" parent="1">
          <mxGeometry x="-750" y="760" width="130" height="30" as="geometry" />
        </mxCell>
        <mxCell id="ZCyPKg8dckpy5I3t4faN-11" value="List" style="swimlane;fontStyle=0;childLayout=stackLayout;horizontal=1;startSize=26;horizontalStack=0;resizeParent=1;resizeParentMax=0;resizeLast=0;collapsible=1;marginBottom=0;align=center;fontSize=14;" vertex="1" parent="1">
          <mxGeometry x="-493" y="180" width="160" height="200" as="geometry" />
        </mxCell>
        <mxCell id="ZCyPKg8dckpy5I3t4faN-12" value="init.hpp" style="text;strokeColor=none;fillColor=none;spacingLeft=4;spacingRight=4;overflow=hidden;rotatable=0;points=[[0,0.5],[1,0.5]];portConstraint=eastwest;fontSize=12;whiteSpace=wrap;html=1;" vertex="1" parent="ZCyPKg8dckpy5I3t4faN-11">
          <mxGeometry y="26" width="160" height="30" as="geometry" />
        </mxCell>
        <mxCell id="ZCyPKg8dckpy5I3t4faN-13" value="elementwise.hpp" style="text;strokeColor=none;fillColor=none;spacingLeft=4;spacingRight=4;overflow=hidden;rotatable=0;points=[[0,0.5],[1,0.5]];portConstraint=eastwest;fontSize=12;whiteSpace=wrap;html=1;" vertex="1" parent="ZCyPKg8dckpy5I3t4faN-11">
          <mxGeometry y="56" width="160" height="30" as="geometry" />
        </mxCell>
        <mxCell id="ZCyPKg8dckpy5I3t4faN-14" value="matmul.hpp&lt;div&gt;&lt;br&gt;&lt;/div&gt;&lt;div&gt;io.hpp&lt;/div&gt;&lt;div&gt;&lt;br&gt;&lt;/div&gt;&lt;div&gt;reduce.hpp&lt;/div&gt;&lt;div&gt;&lt;br&gt;&lt;/div&gt;&lt;div&gt;changeshape.hpp&lt;/div&gt;" style="text;strokeColor=none;fillColor=none;spacingLeft=4;spacingRight=4;overflow=hidden;rotatable=0;points=[[0,0.5],[1,0.5]];portConstraint=eastwest;fontSize=12;whiteSpace=wrap;html=1;" vertex="1" parent="ZCyPKg8dckpy5I3t4faN-11">
          <mxGeometry y="86" width="160" height="114" as="geometry" />
        </mxCell>
        <mxCell id="ZCyPKg8dckpy5I3t4faN-15" value="authora" style="swimlane;fontStyle=0;childLayout=stackLayout;horizontal=1;startSize=26;horizontalStack=0;resizeParent=1;resizeParentMax=0;resizeLast=0;collapsible=1;marginBottom=0;align=center;fontSize=14;" vertex="1" parent="1">
          <mxGeometry x="-150" y="180" width="160" height="200" as="geometry" />
        </mxCell>
        <mxCell id="ZCyPKg8dckpy5I3t4faN-16" value="init_authora.hpp" style="text;strokeColor=none;fillColor=none;spacingLeft=4;spacingRight=4;overflow=hidden;rotatable=0;points=[[0,0.5],[1,0.5]];portConstraint=eastwest;fontSize=12;whiteSpace=wrap;html=1;" vertex="1" parent="ZCyPKg8dckpy5I3t4faN-15">
          <mxGeometry y="26" width="160" height="30" as="geometry" />
        </mxCell>
        <mxCell id="ZCyPKg8dckpy5I3t4faN-17" value="elementwise_authora.hpp" style="text;strokeColor=none;fillColor=none;spacingLeft=4;spacingRight=4;overflow=hidden;rotatable=0;points=[[0,0.5],[1,0.5]];portConstraint=eastwest;fontSize=12;whiteSpace=wrap;html=1;" vertex="1" parent="ZCyPKg8dckpy5I3t4faN-15">
          <mxGeometry y="56" width="160" height="30" as="geometry" />
        </mxCell>
        <mxCell id="ZCyPKg8dckpy5I3t4faN-18" value="matmul_authora.hpp&lt;div&gt;&lt;br&gt;&lt;/div&gt;&lt;div&gt;io&lt;span style=&quot;background-color: transparent; color: light-dark(rgb(0, 0, 0), rgb(255, 255, 255));&quot;&gt;_authora&lt;/span&gt;&lt;span style=&quot;background-color: transparent; color: light-dark(rgb(0, 0, 0), rgb(255, 255, 255));&quot;&gt;.hpp&lt;/span&gt;&lt;/div&gt;&lt;div&gt;&lt;br&gt;&lt;/div&gt;&lt;div&gt;reduce&lt;span style=&quot;background-color: transparent; color: light-dark(rgb(0, 0, 0), rgb(255, 255, 255));&quot;&gt;_authora&lt;/span&gt;&lt;span style=&quot;background-color: transparent; color: light-dark(rgb(0, 0, 0), rgb(255, 255, 255));&quot;&gt;.hpp&lt;/span&gt;&lt;/div&gt;&lt;div&gt;&lt;br&gt;&lt;/div&gt;&lt;div&gt;changeshape&lt;span style=&quot;background-color: transparent; color: light-dark(rgb(0, 0, 0), rgb(255, 255, 255));&quot;&gt;_authora&lt;/span&gt;&lt;span style=&quot;background-color: transparent; color: light-dark(rgb(0, 0, 0), rgb(255, 255, 255));&quot;&gt;.hpp&lt;/span&gt;&lt;/div&gt;" style="text;strokeColor=none;fillColor=none;spacingLeft=4;spacingRight=4;overflow=hidden;rotatable=0;points=[[0,0.5],[1,0.5]];portConstraint=eastwest;fontSize=12;whiteSpace=wrap;html=1;" vertex="1" parent="ZCyPKg8dckpy5I3t4faN-15">
          <mxGeometry y="86" width="160" height="114" as="geometry" />
        </mxCell>
        <mxCell id="ZCyPKg8dckpy5I3t4faN-19" value="authorb" style="swimlane;fontStyle=0;childLayout=stackLayout;horizontal=1;startSize=26;horizontalStack=0;resizeParent=1;resizeParentMax=0;resizeLast=0;collapsible=1;marginBottom=0;align=center;fontSize=14;" vertex="1" parent="1">
          <mxGeometry x="30" y="180" width="160" height="140" as="geometry" />
        </mxCell>
        <mxCell id="ZCyPKg8dckpy5I3t4faN-22" value="matmul_authora.hpp&lt;div&gt;&lt;br&gt;&lt;/div&gt;&lt;div&gt;io&lt;span style=&quot;background-color: transparent; color: light-dark(rgb(0, 0, 0), rgb(255, 255, 255));&quot;&gt;_authora&lt;/span&gt;&lt;span style=&quot;background-color: transparent; color: light-dark(rgb(0, 0, 0), rgb(255, 255, 255));&quot;&gt;.hpp&lt;/span&gt;&lt;/div&gt;&lt;div&gt;&lt;br&gt;&lt;/div&gt;&lt;div&gt;reduce&lt;span style=&quot;background-color: transparent; color: light-dark(rgb(0, 0, 0), rgb(255, 255, 255));&quot;&gt;_authora&lt;/span&gt;&lt;span style=&quot;background-color: transparent; color: light-dark(rgb(0, 0, 0), rgb(255, 255, 255));&quot;&gt;.hpp&lt;/span&gt;&lt;/div&gt;&lt;div&gt;&lt;br&gt;&lt;/div&gt;&lt;div&gt;changeshape&lt;span style=&quot;background-color: transparent; color: light-dark(rgb(0, 0, 0), rgb(255, 255, 255));&quot;&gt;_authora&lt;/span&gt;&lt;span style=&quot;background-color: transparent; color: light-dark(rgb(0, 0, 0), rgb(255, 255, 255));&quot;&gt;.hpp&lt;/span&gt;&lt;/div&gt;" style="text;strokeColor=none;fillColor=none;spacingLeft=4;spacingRight=4;overflow=hidden;rotatable=0;points=[[0,0.5],[1,0.5]];portConstraint=eastwest;fontSize=12;whiteSpace=wrap;html=1;" vertex="1" parent="ZCyPKg8dckpy5I3t4faN-19">
          <mxGeometry y="26" width="160" height="114" as="geometry" />
        </mxCell>
        <mxCell id="ZCyPKg8dckpy5I3t4faN-23" value="TF" style="swimlane;fontStyle=0;childLayout=stackLayout;horizontal=1;startSize=26;fillColor=none;horizontalStack=0;resizeParent=1;resizeParentMax=0;resizeLast=0;collapsible=1;marginBottom=0;whiteSpace=wrap;html=1;" vertex="1" parent="1">
          <mxGeometry x="-483" y="560" width="140" height="104" as="geometry" />
        </mxCell>
        <mxCell id="ZCyPKg8dckpy5I3t4faN-24" value="+ name" style="text;strokeColor=none;fillColor=none;align=left;verticalAlign=top;spacingLeft=4;spacingRight=4;overflow=hidden;rotatable=0;points=[[0,0.5],[1,0.5]];portConstraint=eastwest;whiteSpace=wrap;html=1;" vertex="1" parent="ZCyPKg8dckpy5I3t4faN-23">
          <mxGeometry y="26" width="140" height="26" as="geometry" />
        </mxCell>
        <mxCell id="ZCyPKg8dckpy5I3t4faN-25" value="+ args" style="text;strokeColor=none;fillColor=none;align=left;verticalAlign=top;spacingLeft=4;spacingRight=4;overflow=hidden;rotatable=0;points=[[0,0.5],[1,0.5]];portConstraint=eastwest;whiteSpace=wrap;html=1;" vertex="1" parent="ZCyPKg8dckpy5I3t4faN-23">
          <mxGeometry y="52" width="140" height="26" as="geometry" />
        </mxCell>
        <mxCell id="ZCyPKg8dckpy5I3t4faN-26" value="+ returns" style="text;strokeColor=none;fillColor=none;align=left;verticalAlign=top;spacingLeft=4;spacingRight=4;overflow=hidden;rotatable=0;points=[[0,0.5],[1,0.5]];portConstraint=eastwest;whiteSpace=wrap;html=1;" vertex="1" parent="ZCyPKg8dckpy5I3t4faN-23">
          <mxGeometry y="78" width="140" height="26" as="geometry" />
        </mxCell>
        <mxCell id="ZCyPKg8dckpy5I3t4faN-29" style="edgeStyle=orthogonalEdgeStyle;rounded=0;orthogonalLoop=1;jettySize=auto;html=1;entryX=0;entryY=0.123;entryDx=0;entryDy=0;entryPerimeter=0;exitX=1.006;exitY=0.145;exitDx=0;exitDy=0;exitPerimeter=0;" edge="1" parent="1" source="ZCyPKg8dckpy5I3t4faN-14" target="ZCyPKg8dckpy5I3t4faN-18">
          <mxGeometry relative="1" as="geometry">
            <Array as="points">
              <mxPoint x="-332" y="280" />
            </Array>
          </mxGeometry>
        </mxCell>
        <mxCell id="ZCyPKg8dckpy5I3t4faN-30" value="template author 特化" style="edgeLabel;html=1;align=center;verticalAlign=middle;resizable=0;points=[];" vertex="1" connectable="0" parent="ZCyPKg8dckpy5I3t4faN-29">
          <mxGeometry x="0.4298" y="1" relative="1" as="geometry">
            <mxPoint x="-37" y="1" as="offset" />
          </mxGeometry>
        </mxCell>
        <mxCell id="ZCyPKg8dckpy5I3t4faN-32" style="edgeStyle=orthogonalEdgeStyle;rounded=0;orthogonalLoop=1;jettySize=auto;html=1;entryX=0;entryY=0.5;entryDx=0;entryDy=0;" edge="1" parent="1" source="ZCyPKg8dckpy5I3t4faN-14" target="ZCyPKg8dckpy5I3t4faN-18">
          <mxGeometry relative="1" as="geometry" />
        </mxCell>
        <mxCell id="ZCyPKg8dckpy5I3t4faN-33" value="&lt;span style=&quot;color: rgba(0, 0, 0, 0); font-family: monospace; font-size: 0px; text-align: start; background-color: rgb(251, 251, 251);&quot;&gt;%3CmxGraphModel%3E%3Croot%3E%3CmxCell%20id%3D%220%22%2F%3E%3CmxCell%20id%3D%221%22%20parent%3D%220%22%2F%3E%3CmxCell%20id%3D%222%22%20style%3D%22edgeStyle%3DorthogonalEdgeStyle%3Brounded%3D0%3BorthogonalLoop%3D1%3BjettySize%3Dauto%3Bhtml%3D1%3BentryX%3D0%3BentryY%3D0.123%3BentryDx%3D0%3BentryDy%3D0%3BentryPerimeter%3D0%3BexitX%3D1.006%3BexitY%3D0.145%3BexitDx%3D0%3BexitDy%3D0%3BexitPerimeter%3D0%3B%22%20edge%3D%221%22%20parent%3D%221%22%3E%3CmxGeometry%20relative%3D%221%22%20as%3D%22geometry%22%3E%3CmxPoint%20x%3D%22-332%22%20y%3D%22283%22%20as%3D%22sourcePoint%22%2F%3E%3CmxPoint%20x%3D%22-150%22%20y%3D%22280%22%20as%3D%22targetPoint%22%2F%3E%3CArray%20as%3D%22points%22%3E%3CmxPoint%20x%3D%22-332%22%20y%3D%22280%22%2F%3E%3C%2FArray%3E%3C%2FmxGeometry%3E%3C%2FmxCell%3E%3CmxCell%20id%3D%223%22%20value%3D%22template%20author%20%E7%89%B9%E5%8C%96%22%20style%3D%22edgeLabel%3Bhtml%3D1%3Balign%3Dcenter%3BverticalAlign%3Dmiddle%3Bresizable%3D0%3Bpoints%3D%5B%5D%3B%22%20vertex%3D%221%22%20connectable%3D%220%22%20parent%3D%222%22%3E%3CmxGeometry%20x%3D%220.4298%22%20y%3D%221%22%20relative%3D%221%22%20as%3D%22geometry%22%3E%3CmxPoint%20x%3D%22-37%22%20y%3D%221%22%20as%3D%22offset%22%2F%3E%3C%2FmxGeometry%3E%3C%2FmxCell%3E%3C%2Froot%3E%3C%2FmxGraphModel%3E&lt;/span&gt;" style="edgeLabel;html=1;align=center;verticalAlign=middle;resizable=0;points=[];" vertex="1" connectable="0" parent="ZCyPKg8dckpy5I3t4faN-32">
          <mxGeometry x="-0.071" y="3" relative="1" as="geometry">
            <mxPoint as="offset" />
          </mxGeometry>
        </mxCell>
        <mxCell id="ZCyPKg8dckpy5I3t4faN-34" value="&lt;span style=&quot;color: rgba(0, 0, 0, 0); font-family: monospace; font-size: 0px; text-align: start; background-color: rgb(251, 251, 251);&quot;&gt;%3CmxGraphModel%3E%3Croot%3E%3CmxCell%20id%3D%220%22%2F%3E%3CmxCell%20id%3D%221%22%20parent%3D%220%22%2F%3E%3CmxCell%20id%3D%222%22%20style%3D%22edgeStyle%3DorthogonalEdgeStyle%3Brounded%3D0%3BorthogonalLoop%3D1%3BjettySize%3Dauto%3Bhtml%3D1%3BentryX%3D0%3BentryY%3D0.123%3BentryDx%3D0%3BentryDy%3D0%3BentryPerimeter%3D0%3BexitX%3D1.006%3BexitY%3D0.145%3BexitDx%3D0%3BexitDy%3D0%3BexitPerimeter%3D0%3B%22%20edge%3D%221%22%20parent%3D%221%22%3E%3CmxGeometry%20relative%3D%221%22%20as%3D%22geometry%22%3E%3CmxPoint%20x%3D%22-332%22%20y%3D%22283%22%20as%3D%22sourcePoint%22%2F%3E%3CmxPoint%20x%3D%22-150%22%20y%3D%22280%22%20as%3D%22targetPoint%22%2F%3E%3CArray%20as%3D%22points%22%3E%3CmxPoint%20x%3D%22-332%22%20y%3D%22280%22%2F%3E%3C%2FArray%3E%3C%2FmxGeometry%3E%3C%2FmxCell%3E%3CmxCell%20id%3D%223%22%20value%3D%22template%20author%20%E7%89%B9%E5%8C%96%22%20style%3D%22edgeLabel%3Bhtml%3D1%3Balign%3Dcenter%3BverticalAlign%3Dmiddle%3Bresizable%3D0%3Bpoints%3D%5B%5D%3B%22%20vertex%3D%221%22%20connectable%3D%220%22%20parent%3D%222%22%3E%3CmxGeometry%20x%3D%220.4298%22%20y%3D%221%22%20relative%3D%221%22%20as%3D%22geometry%22%3E%3CmxPoint%20x%3D%22-37%22%20y%3D%221%22%20as%3D%22offset%22%2F%3E%3C%2FmxGeometry%3E%3C%2FmxCell%3E%3C%2Froot%3E%3C%2FmxGraphModel%3E&lt;/span&gt;" style="edgeLabel;html=1;align=center;verticalAlign=middle;resizable=0;points=[];" vertex="1" connectable="0" parent="ZCyPKg8dckpy5I3t4faN-32">
          <mxGeometry x="-0.082" y="-1" relative="1" as="geometry">
            <mxPoint as="offset" />
          </mxGeometry>
        </mxCell>
        <mxCell id="ZCyPKg8dckpy5I3t4faN-36" value="template author 精度特化" style="edgeLabel;html=1;align=center;verticalAlign=middle;resizable=0;points=[];" vertex="1" connectable="0" parent="ZCyPKg8dckpy5I3t4faN-32">
          <mxGeometry x="0.0055" relative="1" as="geometry">
            <mxPoint as="offset" />
          </mxGeometry>
        </mxCell>
        <mxCell id="ZCyPKg8dckpy5I3t4faN-37" value="Add:TF" style="swimlane;fontStyle=0;childLayout=stackLayout;horizontal=1;startSize=26;fillColor=none;horizontalStack=0;resizeParent=1;resizeParentMax=0;resizeLast=0;collapsible=1;marginBottom=0;whiteSpace=wrap;html=1;" vertex="1" parent="1">
          <mxGeometry x="-150" y="563" width="140" height="52" as="geometry" />
        </mxCell>
        <mxCell id="ZCyPKg8dckpy5I3t4faN-38" value="+ run override" style="text;strokeColor=none;fillColor=none;align=left;verticalAlign=top;spacingLeft=4;spacingRight=4;overflow=hidden;rotatable=0;points=[[0,0.5],[1,0.5]];portConstraint=eastwest;whiteSpace=wrap;html=1;" vertex="1" parent="ZCyPKg8dckpy5I3t4faN-37">
          <mxGeometry y="26" width="140" height="26" as="geometry" />
        </mxCell>
        <mxCell id="ZCyPKg8dckpy5I3t4faN-41" style="edgeStyle=orthogonalEdgeStyle;rounded=0;orthogonalLoop=1;jettySize=auto;html=1;entryX=-0.011;entryY=0.159;entryDx=0;entryDy=0;entryPerimeter=0;" edge="1" parent="1" source="ZCyPKg8dckpy5I3t4faN-25" target="ZCyPKg8dckpy5I3t4faN-37">
          <mxGeometry relative="1" as="geometry" />
        </mxCell>
        <mxCell id="ZCyPKg8dckpy5I3t4faN-42" value="Sub:TF" style="swimlane;fontStyle=0;childLayout=stackLayout;horizontal=1;startSize=26;fillColor=none;horizontalStack=0;resizeParent=1;resizeParentMax=0;resizeLast=0;collapsible=1;marginBottom=0;whiteSpace=wrap;html=1;" vertex="1" parent="1">
          <mxGeometry y="563" width="140" height="52" as="geometry" />
        </mxCell>
        <mxCell id="ZCyPKg8dckpy5I3t4faN-43" value="+ run override" style="text;strokeColor=none;fillColor=none;align=left;verticalAlign=top;spacingLeft=4;spacingRight=4;overflow=hidden;rotatable=0;points=[[0,0.5],[1,0.5]];portConstraint=eastwest;whiteSpace=wrap;html=1;" vertex="1" parent="ZCyPKg8dckpy5I3t4faN-42">
          <mxGeometry y="26" width="140" height="26" as="geometry" />
        </mxCell>
      </root>
    </mxGraphModel>
  </diagram>
  <diagram id="z9uejpskYJko357ewfTc" name="第 2 页">
    <mxGraphModel dx="1364" dy="2162" grid="1" gridSize="10" guides="1" tooltips="1" connect="1" arrows="1" fold="1" page="1" pageScale="1" pageWidth="827" pageHeight="1169" math="0" shadow="0">
      <root>
        <mxCell id="0" />
        <mxCell id="1" parent="0" />
        <mxCell id="JBEWLCwWRuB5Uu3qIstv-14" value="" style="group" vertex="1" connectable="0" parent="1">
          <mxGeometry x="90" y="180" width="160" as="geometry" />
        </mxCell>
        <mxCell id="JBEWLCwWRuB5Uu3qIstv-10" value="" style="rounded=1;whiteSpace=wrap;html=1;arcSize=8;" vertex="1" parent="JBEWLCwWRuB5Uu3qIstv-14">
          <mxGeometry x="20" y="30" width="350" height="400" as="geometry" />
        </mxCell>
        <mxCell id="JBEWLCwWRuB5Uu3qIstv-13" value="process&lt;br&gt;excuter-cpu" style="ellipse;whiteSpace=wrap;html=1;aspect=fixed;fillColor=#fff2cc;strokeColor=#d6b656;" vertex="1" parent="JBEWLCwWRuB5Uu3qIstv-14">
          <mxGeometry width="80" height="80" as="geometry" />
        </mxCell>
        <mxCell id="JBEWLCwWRuB5Uu3qIstv-1" value="tensorfunc" style="swimlane;childLayout=stackLayout;horizontal=1;startSize=50;horizontalStack=0;rounded=1;fontSize=14;fontStyle=0;strokeWidth=2;resizeParent=0;resizeLast=1;shadow=0;dashed=0;align=center;arcSize=4;whiteSpace=wrap;html=1;fillColor=#dae8fc;strokeColor=#6c8ebf;" vertex="1" parent="1">
          <mxGeometry x="240" y="470" width="160" height="120" as="geometry" />
        </mxCell>
        <mxCell id="JBEWLCwWRuB5Uu3qIstv-2" value="+A&lt;br&gt;+B&lt;br&gt;+C" style="align=left;strokeColor=none;fillColor=none;spacingLeft=4;spacingRight=4;fontSize=12;verticalAlign=top;resizable=0;rotatable=0;part=1;html=1;whiteSpace=wrap;" vertex="1" parent="JBEWLCwWRuB5Uu3qIstv-1">
          <mxGeometry y="50" width="160" height="70" as="geometry" />
        </mxCell>
        <mxCell id="JBEWLCwWRuB5Uu3qIstv-7" value="TF" style="swimlane;childLayout=stackLayout;horizontal=1;startSize=50;horizontalStack=0;rounded=1;fontSize=14;fontStyle=0;strokeWidth=2;resizeParent=0;resizeLast=1;shadow=0;dashed=0;align=center;arcSize=4;whiteSpace=wrap;html=1;fillColor=#dae8fc;strokeColor=#6c8ebf;" vertex="1" parent="1">
          <mxGeometry x="240" y="250" width="160" height="120" as="geometry" />
        </mxCell>
        <mxCell id="JBEWLCwWRuB5Uu3qIstv-8" value="+inputs&lt;br&gt;+returns" style="align=left;strokeColor=none;fillColor=none;spacingLeft=4;spacingRight=4;fontSize=12;verticalAlign=top;resizable=0;rotatable=0;part=1;html=1;whiteSpace=wrap;" vertex="1" parent="JBEWLCwWRuB5Uu3qIstv-7">
          <mxGeometry y="50" width="160" height="70" as="geometry" />
        </mxCell>
        <mxCell id="JBEWLCwWRuB5Uu3qIstv-9" style="edgeStyle=orthogonalEdgeStyle;rounded=0;orthogonalLoop=1;jettySize=auto;html=1;entryX=0.5;entryY=0;entryDx=0;entryDy=0;" edge="1" parent="1" source="JBEWLCwWRuB5Uu3qIstv-8" target="JBEWLCwWRuB5Uu3qIstv-1">
          <mxGeometry relative="1" as="geometry" />
        </mxCell>
        <mxCell id="JBEWLCwWRuB5Uu3qIstv-19" value="" style="group" vertex="1" connectable="0" parent="1">
          <mxGeometry x="55" y="-540" width="530" height="560" as="geometry" />
        </mxCell>
        <mxCell id="JBEWLCwWRuB5Uu3qIstv-20" value="" style="rounded=1;whiteSpace=wrap;html=1;arcSize=8;" vertex="1" parent="JBEWLCwWRuB5Uu3qIstv-19">
          <mxGeometry x="28.64864864864865" y="78.13953488372093" width="501.35135135135135" height="468.83720930232556" as="geometry" />
        </mxCell>
        <mxCell id="JBEWLCwWRuB5Uu3qIstv-21" value="&lt;div&gt;process&lt;/div&gt;front-py&lt;div&gt;&lt;br/&gt;&lt;/div&gt;" style="ellipse;whiteSpace=wrap;html=1;aspect=fixed;fillColor=#fff2cc;strokeColor=#d6b656;" vertex="1" parent="JBEWLCwWRuB5Uu3qIstv-19">
          <mxGeometry width="84.32432432432432" height="84.32432432432432" as="geometry" />
        </mxCell>
        <mxCell id="JBEWLCwWRuB5Uu3qIstv-22" value="TF" style="swimlane;childLayout=stackLayout;horizontal=1;startSize=50;horizontalStack=0;rounded=1;fontSize=14;fontStyle=0;strokeWidth=2;resizeParent=0;resizeLast=1;shadow=0;dashed=0;align=center;arcSize=4;whiteSpace=wrap;html=1;fillColor=#dae8fc;strokeColor=#6c8ebf;" vertex="1" parent="JBEWLCwWRuB5Uu3qIstv-19">
          <mxGeometry x="192.97179487179488" y="430" width="212" height="90.93" as="geometry" />
        </mxCell>
        <mxCell id="JBEWLCwWRuB5Uu3qIstv-23" value="+inputs&lt;br&gt;+returns" style="align=left;strokeColor=none;fillColor=none;spacingLeft=4;spacingRight=4;fontSize=12;verticalAlign=top;resizable=0;rotatable=0;part=1;html=1;whiteSpace=wrap;" vertex="1" parent="JBEWLCwWRuB5Uu3qIstv-22">
          <mxGeometry y="50" width="212" height="40.93000000000001" as="geometry" />
        </mxCell>
        <mxCell id="JBEWLCwWRuB5Uu3qIstv-27" style="edgeStyle=orthogonalEdgeStyle;rounded=0;orthogonalLoop=1;jettySize=auto;html=1;entryX=0.5;entryY=0;entryDx=0;entryDy=0;" edge="1" parent="JBEWLCwWRuB5Uu3qIstv-19" source="JBEWLCwWRuB5Uu3qIstv-24" target="JBEWLCwWRuB5Uu3qIstv-22">
          <mxGeometry relative="1" as="geometry" />
        </mxCell>
        <mxCell id="JBEWLCwWRuB5Uu3qIstv-24" value="Function" style="swimlane;childLayout=stackLayout;horizontal=1;startSize=50;horizontalStack=0;rounded=1;fontSize=14;fontStyle=0;strokeWidth=2;resizeParent=0;resizeLast=1;shadow=0;dashed=0;align=center;arcSize=4;whiteSpace=wrap;html=1;fillColor=#dae8fc;strokeColor=#6c8ebf;" vertex="1" parent="JBEWLCwWRuB5Uu3qIstv-19">
          <mxGeometry x="149.4871794871795" y="236.74" width="298.974358974359" height="103.26" as="geometry" />
        </mxCell>
        <mxCell id="JBEWLCwWRuB5Uu3qIstv-25" value="&lt;div&gt;&lt;span style=&quot;background-color: transparent; color: light-dark(rgb(0, 0, 0), rgb(255, 255, 255));&quot;&gt;+forward(args,returns)&lt;/span&gt;&lt;/div&gt;+backward(args,args_grad,returns,returns_grad)" style="align=left;strokeColor=none;fillColor=none;spacingLeft=4;spacingRight=4;fontSize=12;verticalAlign=top;resizable=0;rotatable=0;part=1;html=1;whiteSpace=wrap;" vertex="1" parent="JBEWLCwWRuB5Uu3qIstv-24">
          <mxGeometry y="50" width="298.974358974359" height="53.260000000000005" as="geometry" />
        </mxCell>
      </root>
    </mxGraphModel>
  </diagram>
</mxfile>
